<svg width="18" height="18" viewBox="0 0 18 18" fill="none" xmlns="http://www.w3.org/2000/svg">
<path opacity="0.5" d="M9.00018 0.818115C7.38197 0.818115 5.8001 1.29797 4.45461 2.197C3.10911 3.09603 2.06043 4.37386 1.44117 5.86889C0.821904 7.36392 0.659877 9.00901 0.975574 10.5961C1.29127 12.1832 2.07051 13.6411 3.21476 14.7854C4.35901 15.9296 5.81687 16.7088 7.40399 17.0245C8.99111 17.3402 10.6362 17.1782 12.1312 16.5589C13.6263 15.9397 14.9041 14.891 15.8031 13.5455C16.7021 12.2 17.182 10.6181 17.182 8.99993C17.1796 6.83071 16.3168 4.75102 14.783 3.21715C13.2491 1.68327 11.1694 0.820497 9.00018 0.818115ZM12.8514 9.57839C12.6979 9.73177 12.4899 9.81794 12.2729 9.81794C12.056 9.81794 11.8479 9.73177 11.6945 9.57839L9.81836 7.7023V12.2727C9.81836 12.4897 9.73216 12.6978 9.57872 12.8512C9.42528 13.0046 9.21718 13.0908 9.00018 13.0908C8.78319 13.0908 8.57508 13.0046 8.42164 12.8512C8.2682 12.6978 8.182 12.4897 8.182 12.2727V7.7023L6.30591 9.57839C6.1516 9.72743 5.94492 9.80989 5.7304 9.80803C5.51587 9.80617 5.31066 9.72012 5.15897 9.56842C5.00727 9.41672 4.92122 9.21151 4.91936 8.99699C4.91749 8.78246 4.99996 8.57579 5.149 8.42148L8.42173 5.14875C8.57558 4.99616 8.78349 4.91054 9.00018 4.91054C9.21687 4.91054 9.42478 4.99616 9.57864 5.14875L12.8514 8.42148C13.0047 8.57491 13.0909 8.78298 13.0909 8.99993C13.0909 9.21689 13.0047 9.42496 12.8514 9.57839Z" fill="#3D4CEB"/>
</svg>
