<svg width="26" height="26" viewBox="0 0 26 26" fill="none" xmlns="http://www.w3.org/2000/svg">
<path opacity="0.5" d="M21.7532 4.24753C20.6111 3.06503 19.2449 2.12182 17.7344 1.47294C16.2239 0.82407 14.5993 0.482526 12.9553 0.468241C11.3114 0.453956 9.68108 0.767215 8.15951 1.38974C6.63793 2.01227 5.25557 2.93159 4.09309 4.09407C2.93061 5.25655 2.01129 6.63891 1.38876 8.16048C0.766238 9.68206 0.452979 11.3124 0.467264 12.9563C0.48155 14.6002 0.823094 16.2249 1.47197 17.7354C2.12084 19.2459 3.06405 20.6121 4.24656 21.7542C5.38866 22.9367 6.75483 23.8799 8.26536 24.5288C9.77588 25.1777 11.4005 25.5192 13.0444 25.5335C14.6884 25.5478 16.3187 25.2345 17.8403 24.612C19.3618 23.9895 20.7442 23.0701 21.9067 21.9077C23.0692 20.7452 23.9885 19.3628 24.611 17.8413C25.2335 16.3197 25.5468 14.6894 25.5325 13.0454C25.5182 11.4015 25.1767 9.77686 24.5278 8.26633C23.8789 6.75581 22.9357 5.38964 21.7532 4.24753ZM18.8276 17.0779C18.9459 17.1921 19.0402 17.3287 19.1051 17.4798C19.1699 17.6308 19.2041 17.7933 19.2055 17.9577C19.207 18.1221 19.1756 18.2851 19.1134 18.4373C19.0511 18.5894 18.9592 18.7277 18.8429 18.8439C18.7267 18.9602 18.5885 19.0521 18.4363 19.1144C18.2841 19.1766 18.1211 19.2079 17.9567 19.2065C17.7923 19.2051 17.6299 19.1709 17.4788 19.106C17.3278 19.0412 17.1911 18.9468 17.0769 18.8286L12.9999 14.7515L8.92284 18.8286C8.68933 19.0541 8.37659 19.1789 8.05196 19.1761C7.72734 19.1733 7.41681 19.0431 7.18726 18.8135C6.9577 18.5839 6.82749 18.2734 6.82467 17.9488C6.82185 17.6242 6.94665 17.3114 7.17217 17.0779L11.2492 13.0009L7.17217 8.92382C6.94665 8.69031 6.82185 8.37757 6.82467 8.05294C6.82749 7.72832 6.9577 7.41779 7.18726 7.18823C7.41681 6.95868 7.72734 6.82847 8.05196 6.82565C8.37659 6.82283 8.68933 6.94762 8.92284 7.17315L12.9999 11.2502L17.0769 7.17315C17.3104 6.94762 17.6232 6.82283 17.9478 6.82565C18.2724 6.82847 18.583 6.95868 18.8125 7.18823C19.0421 7.41779 19.1723 7.72832 19.1751 8.05294C19.1779 8.37757 19.0531 8.69031 18.8276 8.92382L14.7506 13.0009L18.8276 17.0779Z" fill="#F2F2F2"/>
</svg>
