<svg width="11" height="8" viewBox="0 0 11 8" fill="none" xmlns="http://www.w3.org/2000/svg">
<path d="M5.5 7.33317C5.6381 7.33331 5.77486 7.30569 5.90244 7.25188C6.03001 7.19807 6.14588 7.11914 6.2434 7.01962L10.7048 2.48008C10.8964 2.27825 11.0024 2.00793 11 1.72735C10.9976 1.44676 10.887 1.17835 10.692 0.97994C10.4971 0.781528 10.2333 0.668983 9.95765 0.666544C9.68196 0.664106 9.41635 0.77197 9.21804 0.966905L5.5 4.74985L1.78196 0.966904C1.58365 0.771969 1.31804 0.664105 1.04235 0.666543C0.766652 0.668982 0.502927 0.781527 0.307974 0.97994C0.11302 1.17835 0.00243657 1.44676 4.09153e-05 1.72734C-0.00235569 2.00793 0.103628 2.27825 0.295164 2.48008L4.7566 7.01962C4.85412 7.11914 4.96999 7.19807 5.09756 7.25188C5.22514 7.30569 5.3619 7.33331 5.5 7.33317Z" fill="#828282"/>
</svg>
