<svg width="12" height="8" viewBox="0 0 12 8" fill="none" xmlns="http://www.w3.org/2000/svg">
<path d="M5.99976 0.878686C6.13109 0.87855 6.26116 0.904365 6.38249 0.954647C6.50382 1.00493 6.61402 1.07869 6.70676 1.17169L10.9498 5.41369C11.1319 5.60229 11.2327 5.85489 11.2304 6.11709C11.2282 6.37928 11.123 6.6301 10.9376 6.81551C10.7522 7.00091 10.5014 7.10608 10.2392 7.10836C9.97696 7.11064 9.72436 7.00984 9.53576 6.82769L5.99976 3.29269L2.46376 6.82769C2.27515 7.00984 2.02255 7.11064 1.76036 7.10836C1.49816 7.10608 1.24735 7.00091 1.06194 6.8155C0.87653 6.6301 0.77136 6.37928 0.769082 6.11709C0.766804 5.85489 0.867598 5.60229 1.04976 5.41369L5.29276 1.17169C5.3855 1.07869 5.49569 1.00493 5.61702 0.954647C5.73835 0.904365 5.86842 0.87855 5.99976 0.878686Z" fill="#959595"/>
</svg>
