<svg width="16" height="20" viewBox="0 0 16 20" fill="none" xmlns="http://www.w3.org/2000/svg">
<path opacity="0.5" d="M13 0H3C2.20459 0.000794215 1.44199 0.31712 0.879557 0.879557C0.31712 1.44199 0.000794215 2.20459 0 3V9H8.586L6.293 6.707C6.11084 6.5184 6.01005 6.2658 6.01233 6.0036C6.0146 5.7414 6.11977 5.49059 6.30518 5.30518C6.49059 5.11977 6.7414 5.0146 7.0036 5.01233C7.2658 5.01005 7.5184 5.11084 7.707 5.293L11.707 9.293C11.8945 9.48053 11.9998 9.73484 11.9998 10C11.9998 10.2652 11.8945 10.5195 11.707 10.707L7.707 14.707C7.5184 14.8892 7.2658 14.99 7.0036 14.9877C6.7414 14.9854 6.49059 14.8802 6.30518 14.6948C6.11977 14.5094 6.0146 14.2586 6.01233 13.9964C6.01005 13.7342 6.11084 13.4816 6.293 13.293L8.586 11H0V17C0.000794215 17.7954 0.31712 18.558 0.879557 19.1204C1.44199 19.6829 2.20459 19.9992 3 20H13C13.7954 19.9992 14.558 19.6829 15.1204 19.1204C15.6829 18.558 15.9992 17.7954 16 17V3C15.9992 2.20459 15.6829 1.44199 15.1204 0.879557C14.558 0.31712 13.7954 0.000794215 13 0Z" fill="#3D4CEB"/>
</svg>
