<svg width="20" height="20" viewBox="0 0 20 20" fill="none" xmlns="http://www.w3.org/2000/svg">
<path opacity="0.5" d="M10 0C8.02219 0 6.08879 0.58649 4.4443 1.6853C2.79981 2.78412 1.51809 4.3459 0.761209 6.17317C0.00433284 8.00043 -0.193701 10.0111 0.192152 11.9509C0.578004 13.8907 1.53041 15.6725 2.92894 17.0711C4.32746 18.4696 6.10929 19.422 8.0491 19.8079C9.98891 20.1937 11.9996 19.9957 13.8268 19.2388C15.6541 18.4819 17.2159 17.2002 18.3147 15.5557C19.4135 13.9112 20 11.9778 20 10C19.9971 7.34873 18.9426 4.80688 17.0679 2.93215C15.1931 1.05742 12.6513 0.0029116 10 0ZM15.207 7.613L9.019 13.801C8.83148 13.9885 8.57717 14.0938 8.31201 14.0938C8.04684 14.0938 7.79253 13.9885 7.605 13.801L4.793 10.988C4.61085 10.7994 4.51005 10.5468 4.51233 10.2846C4.51461 10.0224 4.61978 9.77159 4.80519 9.58618C4.99059 9.40077 5.24141 9.2956 5.5036 9.29333C5.7658 9.29105 6.0184 9.39184 6.207 9.574L8.31201 11.68L13.793 6.2C13.9823 6.02221 14.2334 5.92505 14.4931 5.92909C14.7528 5.93312 15.0007 6.03803 15.1844 6.22161C15.3681 6.40519 15.4732 6.65305 15.4774 6.91273C15.4816 7.17241 15.3847 7.42355 15.207 7.613Z" fill="#3D4CEB"/>
</svg>
