<svg width="144" height="43" viewBox="0 0 144 43" fill="none" xmlns="http://www.w3.org/2000/svg">
<rect width="144" height="43" rx="10" fill="#3D4CEB"/>
<path d="M55.8516 24.3516H51.4453L50.5234 27H48.4688L52.7656 15.625H54.5391L58.8438 27H56.7812L55.8516 24.3516ZM52 22.7578H55.2969L53.6484 18.0391L52 22.7578ZM62.1172 22.7734V27H60.1406V15.625H64.4922C65.763 15.625 66.7708 15.9557 67.5156 16.6172C68.2656 17.2786 68.6406 18.1536 68.6406 19.2422C68.6406 20.3568 68.2734 21.224 67.5391 21.8438C66.8099 22.4635 65.7865 22.7734 64.4688 22.7734H62.1172ZM62.1172 21.1875H64.4922C65.1953 21.1875 65.7318 21.0234 66.1016 20.6953C66.4714 20.362 66.6562 19.8828 66.6562 19.2578C66.6562 18.6432 66.4688 18.1536 66.0938 17.7891C65.7188 17.4193 65.2031 17.2292 64.5469 17.2188H62.1172V21.1875ZM72.3516 22.7734V27H70.375V15.625H74.7266C75.9974 15.625 77.0052 15.9557 77.75 16.6172C78.5 17.2786 78.875 18.1536 78.875 19.2422C78.875 20.3568 78.5078 21.224 77.7734 21.8438C77.0443 22.4635 76.0208 22.7734 74.7031 22.7734H72.3516ZM72.3516 21.1875H74.7266C75.4297 21.1875 75.9661 21.0234 76.3359 20.6953C76.7057 20.362 76.8906 19.8828 76.8906 19.2578C76.8906 18.6432 76.7031 18.1536 76.3281 17.7891C75.9531 17.4193 75.4375 17.2292 74.7812 17.2188H72.3516V21.1875ZM82.5859 25.4219H87.75V27H80.6094V15.625H82.5859V25.4219ZM90.7891 21.0156L93.4062 15.625H95.5938L91.7812 22.8125V27H89.7969V22.8125L85.9766 15.625H88.1719L90.7891 21.0156Z" fill="white"/>
</svg>
