<svg width="135" height="40" viewBox="0 0 135 40" fill="none" xmlns="http://www.w3.org/2000/svg">
<rect x="0.5" y="0.5" width="134" height="39" rx="9.5" fill="#3D4CEB"/>
<path d="M25.9578 23.5234C25.5464 24.0599 24.976 24.4661 24.2469 24.7422C23.5177 25.0182 22.6896 25.1562 21.7625 25.1562C20.8094 25.1562 19.9656 24.9401 19.2313 24.5078C18.4969 24.0755 17.9292 23.4583 17.5281 22.6562C17.1323 21.849 16.9266 20.9089 16.9109 19.8359V18.9453C16.9109 17.2266 17.3224 15.8854 18.1453 14.9219C18.9682 13.9531 20.1167 13.4688 21.5906 13.4688C22.8563 13.4688 23.8615 13.7812 24.6063 14.4062C25.351 15.0312 25.799 15.9323 25.95 17.1094H24.0125C23.7938 15.7396 22.9995 15.0547 21.6297 15.0547C20.7443 15.0547 20.0698 15.375 19.6063 16.0156C19.1479 16.651 18.9109 17.5859 18.8953 18.8203V19.6953C18.8953 20.9245 19.1531 21.8802 19.6688 22.5625C20.1896 23.2396 20.9109 23.5781 21.8328 23.5781C22.8432 23.5781 23.562 23.349 23.9891 22.8906V20.6641H21.6453V19.1641H25.9578V23.5234ZM34.9381 19.9219H30.2663V23.4219H35.7272V25H28.2897V13.625H35.6725V15.2188H30.2663V18.3594H34.9381V19.9219ZM45.8716 15.2188H42.3247V25H40.3638V15.2188H36.8481V13.625H45.8716V15.2188ZM57.1525 22.0703C57.1525 21.5703 56.9754 21.1849 56.6213 20.9141C56.2723 20.6432 55.6395 20.3698 54.7228 20.0938C53.8061 19.8177 53.077 19.5104 52.5353 19.1719C51.4989 18.5208 50.9806 17.6719 50.9806 16.625C50.9806 15.7083 51.353 14.9531 52.0978 14.3594C52.8478 13.7656 53.8192 13.4688 55.0119 13.4688C55.8035 13.4688 56.5093 13.6146 57.1291 13.9062C57.7489 14.1979 58.2358 14.6146 58.59 15.1562C58.9442 15.6927 59.1213 16.2891 59.1213 16.9453H57.1525C57.1525 16.3516 56.965 15.888 56.59 15.5547C56.2202 15.2161 55.689 15.0469 54.9963 15.0469C54.3504 15.0469 53.8478 15.1849 53.4884 15.4609C53.1343 15.737 52.9572 16.1224 52.9572 16.6172C52.9572 17.0339 53.1499 17.3828 53.5353 17.6641C53.9207 17.9401 54.5561 18.2109 55.4416 18.4766C56.327 18.737 57.0379 19.0365 57.5744 19.375C58.1108 19.7083 58.5041 20.0938 58.7541 20.5312C59.0041 20.9635 59.1291 21.4714 59.1291 22.0547C59.1291 23.0026 58.7645 23.7578 58.0353 24.3203C57.3114 24.8776 56.327 25.1562 55.0822 25.1562C54.2593 25.1562 53.5015 25.0052 52.8088 24.7031C52.1213 24.3958 51.5848 23.974 51.1994 23.4375C50.8192 22.901 50.6291 22.276 50.6291 21.5625H52.6056C52.6056 22.2083 52.8192 22.7083 53.2463 23.0625C53.6733 23.4167 54.2853 23.5938 55.0822 23.5938C55.7697 23.5938 56.2853 23.4557 56.6291 23.1797C56.978 22.8984 57.1525 22.5286 57.1525 22.0703ZM69.2422 15.2188H65.6953V25H63.7344V15.2188H60.2188V13.625H69.2422V15.2188ZM76.3319 22.3516H71.9256L71.0037 25H68.9491L73.2459 13.625H75.0194L79.3241 25H77.2616L76.3319 22.3516ZM72.4803 20.7578H75.7772L74.1287 16.0391L72.4803 20.7578ZM84.9606 20.6172H82.7575V25H80.7809V13.625H84.7809C86.0934 13.625 87.1065 13.9193 87.82 14.5078C88.5335 15.0964 88.8903 15.9479 88.8903 17.0625C88.8903 17.8229 88.7054 18.4609 88.3356 18.9766C87.971 19.487 87.4606 19.8802 86.8044 20.1562L89.3591 24.8984V25H87.2419L84.9606 20.6172ZM82.7575 19.0312H84.7887C85.4554 19.0312 85.9762 18.8646 86.3512 18.5312C86.7262 18.1927 86.9137 17.7318 86.9137 17.1484C86.9137 16.5391 86.7393 16.0677 86.3903 15.7344C86.0466 15.401 85.5309 15.2292 84.8434 15.2188H82.7575V19.0312ZM98.7534 15.2188H95.2066V25H93.2456V15.2188H89.73V13.625H98.7534V15.2188ZM107.062 19.9219H102.39V23.4219H107.851V25H100.413V13.625H107.796V15.2188H102.39V18.3594H107.062V19.9219ZM109.62 25V13.625H112.98C113.985 13.625 114.876 13.849 115.652 14.2969C116.433 14.7448 117.037 15.3802 117.464 16.2031C117.891 17.026 118.105 17.9688 118.105 19.0312V19.6016C118.105 20.6797 117.889 21.6276 117.456 22.4453C117.029 23.263 116.417 23.8932 115.62 24.3359C114.829 24.7786 113.92 25 112.894 25H109.62ZM111.597 15.2188V23.4219H112.886C113.922 23.4219 114.717 23.099 115.269 22.4531C115.826 21.8021 116.11 20.8698 116.12 19.6562V19.0234C116.12 17.7891 115.852 16.8464 115.316 16.1953C114.779 15.5443 114.001 15.2188 112.98 15.2188H111.597Z" fill="white"/>
<rect x="0.5" y="0.5" width="134" height="39" rx="9.5" stroke="#3D4CEB"/>
</svg>
