<svg width="110" height="32" viewBox="0 0 110 32" fill="none" xmlns="http://www.w3.org/2000/svg">
<rect width="110" height="32" rx="6" fill="#3D4CEB"/>
<path d="M19.5859 21H17.6172V9.625H19.5859V21ZM23.5938 12.5469L23.6484 13.5234C24.2734 12.7682 25.0938 12.3906 26.1094 12.3906C27.8698 12.3906 28.7656 13.3984 28.7969 15.4141V21H26.8984V15.5234C26.8984 14.987 26.7812 14.5911 26.5469 14.3359C26.3177 14.0755 25.9401 13.9453 25.4141 13.9453C24.6484 13.9453 24.0781 14.2917 23.7031 14.9844V21H21.8047V12.5469H23.5938ZM33.7188 18.5938L35.5078 12.5469H37.4688L34.5391 21H32.8906L29.9375 12.5469H31.9062L33.7188 18.5938ZM42.2734 21.1562C41.0703 21.1562 40.0938 20.7786 39.3438 20.0234C38.599 19.263 38.2266 18.2526 38.2266 16.9922V16.7578C38.2266 15.9141 38.388 15.1615 38.7109 14.5C39.0391 13.8333 39.4974 13.3151 40.0859 12.9453C40.6745 12.5755 41.3307 12.3906 42.0547 12.3906C43.2057 12.3906 44.0938 12.7578 44.7188 13.4922C45.349 14.2266 45.6641 15.2656 45.6641 16.6094V17.375H40.1406C40.1979 18.0729 40.4297 18.625 40.8359 19.0312C41.2474 19.4375 41.763 19.6406 42.3828 19.6406C43.2526 19.6406 43.9609 19.2891 44.5078 18.5859L45.5312 19.5625C45.1927 20.0677 44.7396 20.4609 44.1719 20.7422C43.6094 21.0182 42.9766 21.1562 42.2734 21.1562ZM42.0469 13.9141C41.526 13.9141 41.1042 14.0964 40.7812 14.4609C40.4635 14.8255 40.2604 15.3333 40.1719 15.9844H43.7891V15.8438C43.7474 15.2083 43.5781 14.7292 43.2812 14.4062C42.9844 14.0781 42.5729 13.9141 42.0469 13.9141ZM51.8828 18.7031C51.8828 18.3646 51.7422 18.1068 51.4609 17.9297C51.1849 17.7526 50.724 17.5964 50.0781 17.4609C49.4323 17.3255 48.8932 17.1536 48.4609 16.9453C47.513 16.487 47.0391 15.8229 47.0391 14.9531C47.0391 14.224 47.3464 13.6146 47.9609 13.125C48.5755 12.6354 49.3568 12.3906 50.3047 12.3906C51.3151 12.3906 52.1302 12.6406 52.75 13.1406C53.375 13.6406 53.6875 14.2891 53.6875 15.0859H51.7891C51.7891 14.7214 51.6536 14.4193 51.3828 14.1797C51.112 13.9349 50.7526 13.8125 50.3047 13.8125C49.888 13.8125 49.5469 13.9089 49.2812 14.1016C49.0208 14.2943 48.8906 14.5521 48.8906 14.875C48.8906 15.1667 49.013 15.3932 49.2578 15.5547C49.5026 15.7161 49.9974 15.8802 50.7422 16.0469C51.487 16.2083 52.0703 16.4036 52.4922 16.6328C52.9193 16.8568 53.2344 17.1276 53.4375 17.4453C53.6458 17.763 53.75 18.1484 53.75 18.6016C53.75 19.362 53.4349 19.9792 52.8047 20.4531C52.1745 20.9219 51.349 21.1562 50.3281 21.1562C49.6354 21.1562 49.0182 21.0312 48.4766 20.7812C47.9349 20.5312 47.513 20.1875 47.2109 19.75C46.9089 19.3125 46.7578 18.8411 46.7578 18.3359H48.6016C48.6276 18.7839 48.7969 19.1302 49.1094 19.375C49.4219 19.6146 49.8359 19.7344 50.3516 19.7344C50.8516 19.7344 51.2318 19.6406 51.4922 19.4531C51.7526 19.2604 51.8828 19.0104 51.8828 18.7031ZM57.7891 10.4922V12.5469H59.2812V13.9531H57.7891V18.6719C57.7891 18.9948 57.8516 19.2292 57.9766 19.375C58.1068 19.5156 58.3359 19.5859 58.6641 19.5859C58.8828 19.5859 59.1042 19.5599 59.3281 19.5078V20.9766C58.8958 21.0964 58.4792 21.1562 58.0781 21.1562C56.6198 21.1562 55.8906 20.3516 55.8906 18.7422V13.9531H54.5V12.5469H55.8906V10.4922H57.7891ZM66.4844 12.5469L66.5391 13.5234C67.1641 12.7682 67.9844 12.3906 69 12.3906C70.7604 12.3906 71.6562 13.3984 71.6875 15.4141V21H69.7891V15.5234C69.7891 14.987 69.6719 14.5911 69.4375 14.3359C69.2083 14.0755 68.8307 13.9453 68.3047 13.9453C67.5391 13.9453 66.9688 14.2917 66.5938 14.9844V21H64.6953V12.5469H66.4844ZM73.2734 16.6953C73.2734 15.8672 73.4375 15.1224 73.7656 14.4609C74.0938 13.7943 74.5547 13.2839 75.1484 12.9297C75.7422 12.5703 76.4245 12.3906 77.1953 12.3906C78.3359 12.3906 79.2604 12.7578 79.9688 13.4922C80.6823 14.2266 81.0677 15.2005 81.125 16.4141L81.1328 16.8594C81.1328 17.6927 80.9714 18.4375 80.6484 19.0938C80.3307 19.75 79.8724 20.2578 79.2734 20.6172C78.6797 20.9766 77.9922 21.1562 77.2109 21.1562C76.0182 21.1562 75.0625 20.7604 74.3438 19.9688C73.6302 19.1719 73.2734 18.112 73.2734 16.7891V16.6953ZM75.1719 16.8594C75.1719 17.7292 75.3516 18.4115 75.7109 18.9062C76.0703 19.3958 76.5703 19.6406 77.2109 19.6406C77.8516 19.6406 78.349 19.3906 78.7031 18.8906C79.0625 18.3906 79.2422 17.6589 79.2422 16.6953C79.2422 15.8411 79.0573 15.1641 78.6875 14.6641C78.3229 14.1641 77.8255 13.9141 77.1953 13.9141C76.5755 13.9141 76.0833 14.1615 75.7188 14.6562C75.3542 15.1458 75.1719 15.8802 75.1719 16.8594ZM90.1641 18.3828L91.5078 12.5469H93.3594L91.0547 21H89.4922L87.6797 15.1953L85.8984 21H84.3359L82.0234 12.5469H83.875L85.2422 18.3203L86.9766 12.5469H88.4062L90.1641 18.3828Z" fill="#F2F2F2"/>
</svg>
