<svg width="82" height="43" viewBox="0 0 82 43" fill="none" xmlns="http://www.w3.org/2000/svg">
<rect width="82" height="43" rx="10" fill="#3D4CEB"/>
<path d="M19.1562 25.4219H24.3203V27H17.1797V15.625H19.1562V25.4219ZM34.4141 21.6094C34.4141 22.724 34.2214 23.7031 33.8359 24.5469C33.4505 25.3854 32.8984 26.0312 32.1797 26.4844C31.4661 26.9323 30.6432 27.1562 29.7109 27.1562C28.7891 27.1562 27.9661 26.9323 27.2422 26.4844C26.5234 26.0312 25.9661 25.388 25.5703 24.5547C25.1797 23.7214 24.9818 22.7604 24.9766 21.6719V21.0312C24.9766 19.9219 25.1719 18.9427 25.5625 18.0938C25.9583 17.2448 26.513 16.5964 27.2266 16.1484C27.9453 15.6953 28.7682 15.4688 29.6953 15.4688C30.6224 15.4688 31.4427 15.6927 32.1562 16.1406C32.875 16.5833 33.4297 17.224 33.8203 18.0625C34.2109 18.8958 34.4089 19.8672 34.4141 20.9766V21.6094ZM32.4375 21.0156C32.4375 19.7552 32.1979 18.7891 31.7188 18.1172C31.2448 17.4453 30.5703 17.1094 29.6953 17.1094C28.8411 17.1094 28.1719 17.4453 27.6875 18.1172C27.2083 18.7839 26.9635 19.7292 26.9531 20.9531V21.6094C26.9531 22.8594 27.1953 23.8255 27.6797 24.5078C28.1693 25.1901 28.8464 25.5312 29.7109 25.5312C30.5859 25.5312 31.2578 25.1979 31.7266 24.5312C32.2005 23.8646 32.4375 22.8906 32.4375 21.6094V21.0156ZM45.1016 25.5234C44.6901 26.0599 44.1198 26.4661 43.3906 26.7422C42.6615 27.0182 41.8333 27.1562 40.9062 27.1562C39.9531 27.1562 39.1094 26.9401 38.375 26.5078C37.6406 26.0755 37.0729 25.4583 36.6719 24.6562C36.276 23.849 36.0703 22.9089 36.0547 21.8359V20.9453C36.0547 19.2266 36.4661 17.8854 37.2891 16.9219C38.112 15.9531 39.2604 15.4688 40.7344 15.4688C42 15.4688 43.0052 15.7812 43.75 16.4062C44.4948 17.0312 44.9427 17.9323 45.0938 19.1094H43.1562C42.9375 17.7396 42.1432 17.0547 40.7734 17.0547C39.888 17.0547 39.2135 17.375 38.75 18.0156C38.2917 18.651 38.0547 19.5859 38.0391 20.8203V21.6953C38.0391 22.9245 38.2969 23.8802 38.8125 24.5625C39.3333 25.2396 40.0547 25.5781 40.9766 25.5781C41.987 25.5781 42.7057 25.349 43.1328 24.8906V22.6641H40.7891V21.1641H45.1016V25.5234ZM53.3438 27H51.375V15.625H53.3438V27ZM64.7969 27H62.8203L57.75 18.9297V27H55.7734V15.625H57.75L62.8359 23.7266V15.625H64.7969V27Z" fill="white"/>
</svg>
